# xmcd CD database file generated by Grip 3.3.0
# 
# Track frame offsets:
#       150
#       22536
#       39406
# 
# Disc length: 830 seconds
# 
# Revision: 1
# Processed by: cddbd v1.5.1PL2 Copyright (c) Steve Scherf et al.
# Submitted via: Grip 3.3.0
# 
DISCID=11033c03
DTITLE=Textures - Free Sampler
DYEAR=2006
DGENRE=Metal
TTITLE0=Regenesis
TTITLE1=Millstone
TTITLE2=Swandive
EXTD=YEAR: 1994
EXTT0=
EXTT1=
EXTT2=
PLAYORDER=
